/* XPM */
static char * rdp_xpm[] = {
"32 32 28 1",
" 	c None",
".	c #2B5C9D",
"+	c #87A3C8",
"@	c #FC9A18",
"#	c #E4EBF3",
"$	c #4570A9",
"%	c #AFC2DA",
"&	c #FDC67D",
"*	c #FDB351",
"=	c #6085B6",
"-	c #FED9A8",
";	c #D7E0ED",
">	c #5F84B5",
",	c #CAD6E6",
"'	c #7A99C2",
")	c #95ADCE",
"!	c #3766A3",
"~	c #FCA026",
"{	c #527AAF",
"]	c #A2B7D4",
"^	c #FDCC8B",
"/	c #6E8FBC",
"(	c #BCCCE0",
"_	c #FEDFB7",
":	c #95AFCF",
"<	c #FFCD8D",
"[	c #FDB352",
"}	c #3866A3",
"                                ",
"                                ",
"                          ^~@&# ",
"                         -@@@@& ",
"                         *@@@@~ ",
"              +>>>>%     *@@@@~ ",
"              >....)     _@@@@^ ",
"              >....)      _[[<  ",
"              >....)            ",
"          ,#  >....',,;  #,,,,# ",
"      #+{..)  >.......>  ,....) ",
"    #'.....)  >.......>  ,....) ",
"   ;$......)  >.......>  ,....) ",
"  #{.......)  >.......>  ,....) ",
"  +........)  >.......>  ,....) ",
" #......./),  >....=))%  ,....) ",
" ].....{#     >....)     ,....) ",
" >.....#      >....)     ,....) ",
" !....>       >....)     ,....) ",
" .....>       >....)     ,....) ",
" .....>       >....)     ,....) ",
" .....>       >....)     ,....) ",
" .....>       >....+     ,....) ",
" .....>       >....{     ,....) ",
" .....>       ).....)    ,....( ",
" .....>       ;......$+  ,....# ",
" .....>        =......>  ,...'  ",
" .....>        #{.....>  ,..}#  ",
" .....>         #=....>  ,.};   ",
" .....>           ,'{.>  ,'#    ",
"                                ",
"                                "};
